<svg xmlns="http://www.w3.org/2000/svg" xmlns:xlink="http://www.w3.org/1999/xlink" version="1.1" id="Layer_1" x="0px" y="0px" enable-background="new 0 0 1024 1024" xml:space="preserve" viewBox="216.13 275.67 593.61 474.65">
<path fill="#000000" opacity="1.000000" stroke="none" d=" M244.050690,621.843506   C230.729340,593.175720 222.612808,563.400879 219.109344,532.435913   C216.203384,506.751892 214.754257,480.842316 217.884552,455.182556   C220.977005,429.833252 239.100082,412.010895 264.264587,408.308044   C275.207367,406.697815 286.542725,407.665558 297.700378,407.626465   C314.041260,407.569214 311.526123,408.502472 311.642731,393.744019   C311.758575,379.080170 311.669800,364.414764 311.686279,349.750061   C311.734406,306.954865 343.052490,275.722504 385.963837,275.711304   C450.621979,275.694427 515.280151,275.764862 579.938171,275.672943   C606.207825,275.635590 628.164673,285.345520 646.504700,303.925232   C660.081116,317.679047 673.869141,331.223785 687.520203,344.904205   C703.437927,360.856201 712.540955,380.035492 714.161255,402.551178   C714.442017,406.451416 715.680054,407.769928 719.516541,407.714020   C731.012573,407.546417 742.523254,407.970306 754.008789,407.584442   C778.626587,406.757355 804.168091,426.532471 808.228699,454.891449   C810.646606,471.778168 809.591187,488.851868 808.942627,505.792267   C808.179565,525.720703 806.005005,545.578369 801.438171,565.096069   C790.783386,610.632996 770.966187,651.661987 740.838501,687.486145   C723.572754,708.016296 703.480652,725.531311 680.598450,739.567749   C669.092834,746.625488 656.268188,750.305237 642.600769,750.307312   C556.612122,750.320496 470.623474,750.354492 384.634918,750.286560   C369.098999,750.274231 354.660583,745.949097 341.727905,737.341919   C298.166260,708.349976 265.780060,669.834717 244.050690,621.843506  M520.214966,532.714722   C514.687866,538.261902 509.112488,543.762085 503.643860,549.366333   C492.942749,560.332642 481.628815,570.791748 471.793488,582.490662   C457.261658,599.775879 450.487427,620.391541 447.877686,642.826172   C443.191162,683.114136 475.213257,710.962891 506.837311,711.532104   C551.812561,712.341614 596.812744,711.861755 641.801880,711.759399   C657.992920,711.722595 671.578430,700.744629 675.775208,685.123962   C677.364746,679.207458 676.917969,673.216492 676.918640,667.245605   C676.928162,582.264282 676.805542,497.282745 676.943787,412.301666   C676.968384,397.181488 672.499756,384.188538 661.823914,373.441193   C647.146118,358.665131 632.432800,343.924255 617.729431,329.173553   C613.944763,325.376678 609.813538,322.020721 605.004944,319.595490   C603.458679,318.815613 601.903992,317.434631 600.031189,318.820831   C599.963135,319.064545 599.829285,319.274048 599.886658,319.378326   C601.321960,321.987030 602.797363,324.573730 604.226135,327.185974   C617.263062,351.021606 618.466125,376.486053 613.741699,402.446228   C608.386963,431.870300 595.353455,457.529388 574.035400,478.789032   C556.220093,496.555634 538.486755,514.404480 520.214966,532.714722  M544.092102,320.389496   C536.195068,316.621582 528.021057,314.070679 519.137146,314.081146   C473.308350,314.135162 427.478546,313.959686 381.651154,314.222412   C365.125458,314.317169 349.973053,328.885132 349.459351,345.386078   C348.847717,365.032623 349.297974,384.711548 349.225311,404.376221   C349.214691,407.247101 350.367432,408.446167 353.258240,408.880737   C362.954437,410.338287 372.655365,411.837677 382.271637,413.739746   C407.944122,418.817719 432.177094,427.792633 454.976135,440.733429   C474.684692,451.920074 492.350677,465.707794 508.370026,481.647247   C511.603363,484.864471 513.960754,485.335358 517.398682,481.744690   C528.805298,469.831085 540.887512,458.546539 551.992554,446.366089   C570.346375,426.234863 578.738403,401.721405 578.335571,374.945679   C577.973816,350.893799 566.091125,332.527954 544.092102,320.389496  M427.753845,707.849670   C421.902039,700.450684 417.725525,692.161804 414.651886,683.278137   C408.498444,665.492920 408.691101,647.424011 411.555206,629.058411   C415.674957,602.640747 425.377594,578.725098 442.395508,558.027771   C453.736267,544.235046 467.141144,532.381226 479.590515,519.629700   C486.038269,513.025452 486.074219,512.850891 479.301727,506.343964   C444.851776,473.245087 403.774384,454.164124 356.504333,448.120209   C349.522614,447.227539 349.244019,447.430634 349.238190,454.716827   C349.221191,476.046600 349.241241,497.376343 349.239838,518.706116   C349.236389,571.364014 349.176788,624.021973 349.253418,676.679749   C349.278137,693.676941 362.501648,710.074463 378.711639,711.349487   C394.283997,712.574402 410.013702,711.817566 425.674500,711.877747   C427.882782,711.886292 429.312408,711.026733 427.753845,707.849670  M747.023987,607.577209   C756.831482,586.668030 763.545837,564.749756 767.535767,542.059570   C772.079407,516.220520 772.058777,490.075073 771.651794,463.943665   C771.489563,453.532928 763.221924,445.371552 752.806763,445.306183   C742.317139,445.240326 731.826599,445.281952 721.336548,445.311188   C714.549255,445.330109 714.301392,445.582245 714.301270,452.318298   C714.299866,518.755798 714.301514,585.193298 714.340271,651.630798   C714.341309,653.364807 713.705200,655.307983 715.997925,657.508667   C728.416626,642.305115 738.494019,625.887573 747.023987,607.577209  M258.394104,541.170227   C258.657227,542.304199 258.966217,543.429810 259.176758,544.573425   C266.603760,584.915955 282.289093,621.616455 307.508179,654.102905   C308.332153,655.164368 308.769897,656.958618 311.151855,656.476196   C312.129944,652.475281 311.623505,648.313904 311.625549,644.214539   C311.657562,579.881592 311.603394,515.548645 311.723236,451.215912   C311.731750,446.649536 310.405334,445.071259 305.758392,445.204224   C295.433624,445.499695 285.094452,445.277313 274.761200,445.294922   C262.459473,445.315887 254.572281,453.112122 254.376251,465.567413   C253.982819,490.565247 254.331665,515.528381 258.394104,541.170227  z"/>
</svg>